<svg width="721" height="164" viewBox="0 0 721 164" fill="none" xmlns="http://www.w3.org/2000/svg">
<path d="M0.801453 163.316V117.305H2.65063V87.7955H5.95966V80.224H14.2322V61.3923H19.6824V48.9673H16.7626V46.1523H36.5194V27.6118H42.3588V20.2344H40.4124V8.1006L44.4026 5.18849L49.3662 8.19767V20.3315H47.1277V27.6118H52.2859V14.7985H66.3979V27.7089H69.9016V99.6381H89.853V125.362H95.1085V131.671H105.23V106.627V104.395H107.761V98.6674H116.422V104.298H120.121V101.385H121.873V97.8909L125.668 95.6582L129.075 97.4055L131.994 95.6582L135.206 97.0172V104.589H136.763V132.06H138.807V117.887H141.532V87.7955H144.744V81.1947H156.423V87.8926H168.393V134.486H173.844V117.499H176.082V87.6985H179.975V81.2918H183.479V76.8266L186.496 75.2734L190.291 77.0207V80.4182H194.282V87.7955H201.386V89.5428H204.306V104.589H206.836V26.544H211.021V23.2436H220.559V14.7014H225.912V9.55666L230.292 7.22697L234.671 9.45959V12.6629H238.953V24.1172H243.722V72.1672H253.065V79.9328H260.462V70.614L277.786 80.9035H281.971V108.083H290.827V110.898H295.693V116.82H299.002V111.19H309.708V131.671H312.238V104.686H314.088V87.7955H316.131V75.6617L319.538 71.1965V63.0425L322.749 61.4894L326.253 63.4308V71.1965L328.686 75.8559V67.799H340.462V75.6617H342.214V104.395H344.161V117.111H346.691V104.395H348.054V87.6985H351.363V81.4859H363.431V87.6985L375.402 87.6014V95.9495L377.446 97.3084V104.492H383.577V44.9874H386.497V34.6979H397.884V44.8903H409.952V105.559H413.942V63.2367H412.871V60.4216H417.251V51.297H422.02V45.6669L426.886 43.4343L431.266 45.4728V51.297H437.397V60.8099H446.74V63.3337H451.12V110.51H453.845V87.6014H458.614V83.4274H456.765V76.7295L460.074 74.8851L463.772 76.7295V83.4274H461.923V87.6985H466.302V79.8357H470.877V46.4435H483.529V35.7657H495.597V46.4435H497.641V55.2769H505.816V64.8869H507.86V17.6135H515.743V5.57677L520.609 0.820312L525.281 5.57677V17.7106H532.677V20.9139H536.181V131.671H553.699V104.686H556.23V57.0242H559.636V54.5974H566.741V44.5021H570.926V38.969L574.137 36.6393L577.446 38.969V45.861H581.145V54.8886H586.108V136.234H589.125V106.627H588.347V104.589H591.266V98.8616H600.318V104.492H605.476V98.5704C605.476 98.5704 605.865 95.7553 609.077 95.7553C612.288 95.7553 612.58 97.5996 612.58 97.5996C612.58 97.5996 613.164 95.8524 616.376 95.8524C619.198 95.8524 619.393 98.5704 619.393 98.5704V104.589H621.437V106.336H620.366V149.144H624.065V106.336H622.994V104.589H625.816V98.6674H634.673V103.909H640.123V97.7938C640.123 97.7938 640.707 95.8524 643.529 95.8524C646.06 95.8524 646.936 97.7938 646.936 97.7938C646.936 97.7938 647.422 95.7553 650.245 95.7553C652.483 95.7553 653.457 97.5996 653.457 97.5996V104.395H654.916V131.671H657.447V50.1322H656.474V47.6083H660.464V38.0954H674.478V47.4142H688.59V131.768H694.722V89.5428H693.749V87.6014H697.155V80.5152H707.763V87.6014H712.338V83.6215H711.072V76.8266L714.284 74.8851L718.177 77.1178V83.8156H716.912V87.7955H720.999V163.316H0.898743" fill="#F7B919" fill-opacity="0.2"/>
</svg>
