<svg width="720" height="164" viewBox="0 0 720 164" fill="none" xmlns="http://www.w3.org/2000/svg">
<path d="M719.801 163.316V117.305H717.952V87.7955H714.643V80.224H706.371V61.3923H700.921V48.9673H703.84V46.1523H684.083V27.6118H678.244V20.2344H680.191V8.1006L676.2 5.18849L671.237 8.19767V20.3315H673.475V27.6118H668.317V14.7985H654.205V27.7089H650.701V99.6381H630.75V125.362H625.494V131.671H615.373V106.627V104.395H612.842V98.6674H604.18V104.298H600.482V101.385H598.73V97.8909L594.935 95.6582L591.528 97.4055L588.609 95.6582L585.397 97.0172V104.589H583.84V132.06H581.796V117.887H579.071V87.7955H575.859V81.1947H564.18V87.8926H552.209V134.486H546.759V117.499H544.521V87.6985H540.628V81.2918H537.124V76.8266L534.107 75.2734L530.312 77.0207V80.4182H526.321V87.7955H519.217V89.5428H516.297V104.589H513.766V26.544H509.582V23.2436H500.044V14.7014H494.691V9.55666L490.311 7.22697L485.932 9.45959V12.6629H481.65V24.1172H476.881V72.1672H467.538V79.9328H460.141V70.614L442.817 80.9035H438.632V108.083H429.776V110.898H424.91V116.82H421.601V111.19H410.895V131.671H408.365V104.686H406.515V87.7955H404.472V75.6617L401.065 71.1965V63.0425L397.854 61.4894L394.35 63.4308V71.1965L391.917 75.8559V67.799H380.141V75.6617H378.389V104.395H376.442V117.111H373.912V104.395H372.549V87.6985H369.24V81.4859H357.172V87.6985L345.201 87.6014V95.9495L343.157 97.3084V104.492H337.026V44.9874H334.106V34.6979H322.719V44.8903H310.651V105.559H306.661V63.2367H307.731V60.4216H303.352V51.297H298.583V45.6669L293.717 43.4343L289.337 45.4728V51.297H283.206V60.8099H273.863V63.3337H269.483V110.51H266.758V87.6014H261.989V83.4274H263.838V76.7295L260.529 74.8851L256.831 76.7295V83.4274H258.68V87.6985H254.301V79.8357H249.726V46.4435H237.074V35.7657H225.006V46.4435H222.962V55.2769H214.787V64.8869H212.743V17.6135H204.86V5.57677L199.994 0.820312L195.322 5.57677V17.7106H187.926V20.9139H184.422V131.671H166.904V104.686H164.373V57.0242H160.967V54.5974H153.862V44.5021H149.677V38.969L146.465 36.6393L143.156 38.969V45.861H139.458V54.8886H134.495V136.234H131.478V106.627H132.256V104.589H129.336V98.8616H120.285V104.492H115.127V98.5704C115.127 98.5704 114.738 95.7553 111.526 95.7553C108.314 95.7553 108.022 97.5996 108.022 97.5996C108.022 97.5996 107.439 95.8524 104.227 95.8524C101.404 95.8524 101.21 98.5704 101.21 98.5704V104.589H99.166V106.336H100.237V149.144H96.5383V106.336H97.6088V104.589H94.7864V98.6674H85.9299V103.909H80.4798V97.7938C80.4798 97.7938 79.8959 95.8524 77.0735 95.8524C74.543 95.8524 73.6671 97.7938 73.6671 97.7938C73.6671 97.7938 73.1805 95.7553 70.3581 95.7553C68.1196 95.7553 67.1464 97.5996 67.1464 97.5996V104.395H65.6865V131.671H63.1561V50.1322H64.1294V47.6083H60.1391V38.0954H46.1244V47.4142H32.0124V131.768H25.881V89.5428H26.8542V87.6014H23.4479V80.5152H12.8396V87.6014H8.26536V83.6215H9.53057V76.8266L6.31887 74.8851L2.42591 77.1178V83.8156H3.69113V87.7955H-0.396484V163.316H719.704" fill="#F7B919" fill-opacity="0.2"/>
</svg>
