<svg width="26" height="12" viewBox="0 0 26 12" fill="none" xmlns="http://www.w3.org/2000/svg">
<path d="M25.319 2.66638C25.2267 2.91718 25.1739 3.20098 25.0289 3.41878C24.8245 3.70917 24.5871 4.01277 24.297 4.20417C20.862 6.52075 17.4139 8.81754 13.9591 11.1077C13.1086 11.6753 12.2119 11.6687 11.3548 11.1077C7.90005 8.80434 4.44528 6.50095 0.997101 4.19097C0.166373 3.63657 -0.176467 2.67958 0.0872565 1.72259C0.357573 0.745795 1.19489 0.0791994 2.2366 0.00659995C2.31572 0 2.38824 0 2.46076 0C9.25823 0 16.0557 0 22.8597 0C23.9872 0 24.864 0.600596 25.2003 1.59719C25.2464 1.73579 25.2794 1.88099 25.3256 2.01959C25.319 2.23738 25.319 2.44858 25.319 2.66638Z" fill="#3734A9"/>
</svg>
