<svg width="26" height="14" viewBox="0 0 26 14" fill="none" xmlns="http://www.w3.org/2000/svg">
<path d="M25.3207 0.339844C25.3207 4.21402 25.3207 8.09479 25.3207 11.9756C25.3141 11.9888 25.2943 12.002 25.2943 12.0152C24.9581 13.3549 24.1405 13.9951 22.7626 13.9951C16.0311 13.9951 9.29953 13.9951 2.568 13.9951C2.48888 13.9951 2.40317 13.9951 2.32406 13.9951C0.998848 13.9489 0.0164801 12.9458 0.0164801 11.6192C0.00988698 7.92319 0.0164801 4.22722 0.0164801 0.531242C0.0164801 0.471843 0.0296662 0.412443 0.0362593 0.339844C0.0824108 0.366244 0.10219 0.372843 0.121969 0.386043C3.54378 2.66963 6.95899 4.95321 10.3808 7.23019C11.917 8.25319 13.4334 8.25319 14.9696 7.23019C18.0288 5.19081 21.0814 3.15142 24.1405 1.11204C24.5229 0.85464 24.9251 0.597242 25.3207 0.339844Z" fill="#3734A9"/>
</svg>
