<svg width="69" height="17" viewBox="0 0 69 17" fill="none" xmlns="http://www.w3.org/2000/svg">
<path d="M9.36431 14.4884V16.0778H1.55903V14.4884H9.36431ZM1.95385 1.33791V16.0778H0V1.33791H1.95385ZM8.33171 7.67527V9.26468H1.55903V7.67527H8.33171ZM9.26308 1.33791V2.93744H1.55903V1.33791H9.26308Z" fill="#F2F2F2"/>
<path d="M13.3733 6.84514V16.0778H11.5004V5.12413H13.3226L13.3733 6.84514ZM16.795 5.06339L16.7849 6.80465C16.6297 6.7709 16.4812 6.75065 16.3395 6.7439C16.2045 6.73041 16.0493 6.72366 15.8738 6.72366C15.4418 6.72366 15.0605 6.79115 14.7298 6.92613C14.3991 7.06111 14.119 7.25008 13.8896 7.49305C13.6601 7.73602 13.4779 8.02622 13.3429 8.36368C13.2146 8.69438 13.1303 9.05883 13.0898 9.45702L12.5634 9.76073C12.5634 9.09932 12.6275 8.47841 12.7557 7.89799C12.8907 7.31757 13.0965 6.80465 13.3733 6.35921C13.65 5.90702 14.0009 5.55607 14.4261 5.30636C14.858 5.04989 15.371 4.92166 15.9649 4.92166C16.0999 4.92166 16.2551 4.93853 16.4306 4.97228C16.606 4.99927 16.7275 5.02964 16.795 5.06339Z" fill="#F2F2F2"/>
<path d="M24.5801 14.205V8.56615C24.5801 8.13421 24.4923 7.75964 24.3168 7.44243C24.1481 7.11848 23.8917 6.86876 23.5475 6.69329C23.2032 6.51781 22.7781 6.43007 22.2719 6.43007C21.7994 6.43007 21.3844 6.51106 21.0267 6.67304C20.6757 6.83502 20.399 7.04761 20.1965 7.31082C20.0008 7.57404 19.903 7.8575 19.903 8.16121H18.0301C18.0301 7.76976 18.1313 7.38169 18.3338 6.99699C18.5363 6.6123 18.8265 6.26472 19.2044 5.95426C19.5891 5.63706 20.0481 5.38734 20.5812 5.20512C21.1212 5.01615 21.7218 4.92166 22.3832 4.92166C23.1796 4.92166 23.8815 5.05664 24.4889 5.3266C25.1031 5.59656 25.5823 6.00488 25.9265 6.55156C26.2774 7.09148 26.4529 7.76976 26.4529 8.5864V13.6887C26.4529 14.0531 26.4833 14.4412 26.544 14.8529C26.6115 15.2646 26.7094 15.6189 26.8376 15.9159V16.0778H24.8838C24.7893 15.8619 24.715 15.575 24.661 15.2173C24.6071 14.8529 24.5801 14.5154 24.5801 14.205ZM24.904 9.43678L24.9243 10.7528H23.0311C22.498 10.7528 22.0222 10.7967 21.6037 10.8844C21.1853 10.9654 20.8343 11.0903 20.5509 11.259C20.2674 11.4277 20.0514 11.6403 19.903 11.8968C19.7545 12.1465 19.6802 12.4401 19.6802 12.7776C19.6802 13.1218 19.7579 13.4356 19.9131 13.7191C20.0683 14.0025 20.3012 14.2286 20.6116 14.3973C20.9288 14.5593 21.3169 14.6403 21.7758 14.6403C22.3495 14.6403 22.8557 14.5188 23.2944 14.2758C23.7331 14.0329 24.0806 13.7359 24.3371 13.385C24.6003 13.034 24.742 12.6932 24.7623 12.3625L25.562 13.2635C25.5148 13.547 25.3866 13.8608 25.1773 14.205C24.9681 14.5492 24.688 14.8799 24.3371 15.1971C23.9929 15.5076 23.5812 15.7674 23.102 15.9766C22.6296 16.1791 22.0964 16.2803 21.5025 16.2803C20.7601 16.2803 20.1088 16.1352 19.5486 15.845C18.9952 15.5548 18.5633 15.1667 18.2528 14.6808C17.9491 14.1881 17.7973 13.6381 17.7973 13.0306C17.7973 12.4435 17.912 11.9272 18.1415 11.4817C18.3709 11.0296 18.7016 10.655 19.1336 10.358C19.5655 10.0543 20.0852 9.82485 20.6926 9.66962C21.3 9.51439 21.9783 9.43678 22.7274 9.43678H24.904Z" fill="#F2F2F2"/>
<path d="M32.193 16.0778H30.3201V3.97004C30.3201 3.1804 30.4619 2.51562 30.7453 1.9757C31.0355 1.42902 31.4506 1.01733 31.9905 0.74062C32.5304 0.45716 33.1716 0.31543 33.914 0.31543C34.13 0.31543 34.3459 0.328928 34.5619 0.355924C34.7846 0.38292 35.0006 0.423415 35.2098 0.477407L35.1086 2.00607C34.9669 1.97232 34.8049 1.9487 34.6227 1.9352C34.4472 1.9217 34.2717 1.91496 34.0962 1.91496C33.698 1.91496 33.3538 1.99594 33.0636 2.15792C32.7802 2.31315 32.5642 2.54262 32.4157 2.84633C32.2672 3.15003 32.193 3.52461 32.193 3.97004V16.0778ZM34.5214 5.12413V6.56168H28.589V5.12413H34.5214Z" fill="#F2F2F2"/>
<path d="M38.6417 0.528025V16.0778H36.7587V0.528025H38.6417Z" fill="#F2F2F2"/>
<path d="M46.1939 16.2803C45.4313 16.2803 44.7395 16.1521 44.1186 15.8956C43.5044 15.6324 42.9746 15.2646 42.5292 14.7922C42.0905 14.3197 41.753 13.7595 41.5168 13.1116C41.2806 12.4637 41.1625 11.7551 41.1625 10.9857V10.5605C41.1625 9.66962 41.2941 8.87661 41.5573 8.18145C41.8205 7.47955 42.1782 6.88563 42.6304 6.3997C43.0826 5.91377 43.5955 5.54595 44.1692 5.29623C44.7429 5.04652 45.3368 4.92166 45.9509 4.92166C46.7338 4.92166 47.4087 5.05664 47.9757 5.3266C48.5493 5.59656 49.0184 5.97451 49.3828 6.46044C49.7473 6.93963 50.0172 7.50655 50.1927 8.16121C50.3682 8.80912 50.4559 9.51777 50.4559 10.2872V11.1274H42.2761V9.59875H48.5831V9.45702C48.5561 8.97109 48.4548 8.49866 48.2794 8.03972C48.1106 7.58079 47.8407 7.20284 47.4695 6.90588C47.0983 6.60892 46.5921 6.46044 45.9509 6.46044C45.5257 6.46044 45.1343 6.55156 44.7766 6.73378C44.4189 6.90926 44.1118 7.17247 43.8554 7.52342C43.5989 7.87437 43.3998 8.30294 43.2581 8.80912C43.1163 9.31529 43.0455 9.89909 43.0455 10.5605V10.9857C43.0455 11.5054 43.1163 11.9947 43.2581 12.4536C43.4065 12.9058 43.6191 13.304 43.8959 13.6482C44.1793 13.9924 44.5201 14.2624 44.9183 14.4581C45.3233 14.6538 45.7822 14.7517 46.2951 14.7517C46.9565 14.7517 47.5167 14.6167 47.9757 14.3467C48.4346 14.0768 48.8362 13.7157 49.1804 13.2635L50.3142 14.1645C50.078 14.5222 49.7777 14.863 49.4132 15.187C49.0488 15.5109 48.5999 15.7741 48.0668 15.9766C47.5403 16.1791 46.9161 16.2803 46.1939 16.2803Z" fill="#F2F2F2"/>
<path d="M57.1881 16.2803C56.4255 16.2803 55.7337 16.1521 55.1128 15.8956C54.4986 15.6324 53.9688 15.2646 53.5234 14.7922C53.0847 14.3197 52.7472 13.7595 52.511 13.1116C52.2748 12.4637 52.1567 11.7551 52.1567 10.9857V10.5605C52.1567 9.66962 52.2883 8.87661 52.5515 8.18145C52.8147 7.47955 53.1724 6.88563 53.6246 6.3997C54.0768 5.91377 54.5897 5.54595 55.1634 5.29623C55.7371 5.04652 56.331 4.92166 56.9451 4.92166C57.728 4.92166 58.4029 5.05664 58.9699 5.3266C59.5435 5.59656 60.0126 5.97451 60.377 6.46044C60.7415 6.93963 61.0115 7.50655 61.1869 8.16121C61.3624 8.80912 61.4501 9.51777 61.4501 10.2872V11.1274H53.2703V9.59875H59.5773V9.45702C59.5503 8.97109 59.449 8.49866 59.2736 8.03972C59.1048 7.58079 58.8349 7.20284 58.4637 6.90588C58.0925 6.60892 57.5863 6.46044 56.9451 6.46044C56.52 6.46044 56.1285 6.55156 55.7708 6.73378C55.4131 6.90926 55.106 7.17247 54.8496 7.52342C54.5931 7.87437 54.394 8.30294 54.2523 8.80912C54.1105 9.31529 54.0397 9.89909 54.0397 10.5605V10.9857C54.0397 11.5054 54.1105 11.9947 54.2523 12.4536C54.4008 12.9058 54.6133 13.304 54.8901 13.6482C55.1735 13.9924 55.5144 14.2624 55.9125 14.4581C56.3175 14.6538 56.7764 14.7517 57.2893 14.7517C57.9508 14.7517 58.5109 14.6167 58.9699 14.3467C59.4288 14.0768 59.8304 13.7157 60.1746 13.2635L61.3084 14.1645C61.0722 14.5222 60.7719 14.863 60.4074 15.187C60.043 15.5109 59.5942 15.7741 59.061 15.9766C58.5345 16.1791 57.9103 16.2803 57.1881 16.2803Z" fill="#F2F2F2"/>
<path d="M68.2228 5.12413V6.56168H62.3005V5.12413H68.2228ZM64.305 2.46163H66.1779V13.3647C66.1779 13.7359 66.2352 14.016 66.35 14.205C66.4647 14.394 66.6132 14.5188 66.7954 14.5796C66.9776 14.6403 67.1733 14.6707 67.3826 14.6707C67.5378 14.6707 67.6998 14.6572 67.8685 14.6302C68.044 14.5964 68.1756 14.5694 68.2633 14.5492L68.2734 16.0778C68.125 16.1251 67.9292 16.169 67.6863 16.2095C67.4501 16.2567 67.1632 16.2803 66.8258 16.2803C66.3668 16.2803 65.945 16.1892 65.5603 16.007C65.1756 15.8248 64.8685 15.521 64.6391 15.0959C64.4164 14.6639 64.305 14.0835 64.305 13.3546V2.46163Z" fill="#F2F2F2"/>
</svg>
