<svg width="20" height="19" viewBox="0 0 20 19" fill="none" xmlns="http://www.w3.org/2000/svg">
<path d="M5.46564 0C5.71289 0.0989581 5.98617 0.160807 6.2074 0.303059C6.63684 0.575194 6.85157 0.989581 6.87109 1.48437C6.90362 2.3317 6.96869 3.17284 7.18341 4.00162C7.26799 4.3356 7.37861 4.66959 7.4697 5.00357C7.60634 5.51691 7.47621 5.9746 7.13786 6.38898C6.57828 7.0755 6.02521 7.7744 5.47865 8.47329C5.44612 8.5104 5.44612 8.60317 5.47214 8.65265C6.5978 10.6998 8.18544 12.3388 10.3066 13.4892C10.4953 13.5944 10.684 13.7057 10.8857 13.7985C10.9378 13.8232 11.0419 13.8232 11.0874 13.7861C11.8227 13.2666 12.558 12.747 13.2802 12.209C13.7096 11.8873 14.1846 11.7946 14.7117 11.9059C15.2387 12.0234 15.7527 12.1904 16.2798 12.2708C16.9565 12.3698 17.6462 12.4254 18.3359 12.4625C19.1362 12.5058 19.7218 12.9017 19.9301 13.6006C19.9756 13.7552 19.9951 13.916 19.9951 14.0768C20.0016 15.1839 20.0016 16.291 19.9951 17.3981C19.9951 18.3505 19.2924 19.0061 18.2904 19C14.5946 18.9628 11.198 17.9856 8.13989 16.0188C5.17934 14.1201 2.97357 11.6028 1.53558 8.48566C0.832859 6.96418 0.364376 5.36848 0.162668 3.71711C0.0910939 3.23469 0.0520537 2.74609 0 2.26367C0 1.95442 0 1.64518 0 1.33593C0.110614 1.09472 0.195201 0.828774 0.344856 0.606118C0.585604 0.247395 0.982513 0.0927732 1.40545 0C2.75884 0 4.11224 0 5.46564 0Z" fill="#3734A9"/>
</svg>
