<svg width="39" height="39" viewBox="0 0 39 39" fill="none" xmlns="http://www.w3.org/2000/svg">
<path d="M22.7384 34.97C23.1729 35.894 22.7867 36.9967 21.8738 37.44C20.4161 38.148 18.8779 38.6727 17.2937 39H16.5579C0.665323 35.75 -0.971614 16.7143 0.371015 7.16883C0.433097 6.65115 0.706709 6.1822 1.12515 5.8781C1.54591 5.57631 2.07246 5.46256 2.57832 5.57167C4.96038 6.00114 7.41138 5.77596 9.67642 4.91933C11.9412 4.06504 13.937 2.60951 15.4545 0.705953C15.8086 0.253273 16.3535 -0.0090331 16.926 0.000237766C17.5055 0.000237766 18.0504 0.276486 18.3976 0.743096C19.9197 2.63738 21.9178 4.08364 24.1825 4.93329C26.4474 5.78294 28.896 6.00348 31.2736 5.57167C31.7794 5.46257 32.306 5.57632 32.7267 5.8781C33.1452 6.18221 33.4188 6.65115 33.4809 7.16883C34.0419 11.9347 33.8695 16.7588 32.9658 21.4685C32.7635 22.4946 31.7748 23.1586 30.7585 22.9543C29.7422 22.75 29.0846 21.7518 29.287 20.7257C29.9814 17.0555 30.1975 13.309 29.9308 9.58282C25.0885 9.88925 20.35 8.07619 16.926 4.60567C13.4656 8.0646 8.70597 9.86142 3.84755 9.54568C3.40609 15.2471 3.31412 32.2029 16.926 35.2854C18.0871 35.0324 19.216 34.6447 20.2922 34.134C21.1958 33.6906 22.2856 34.062 22.7386 34.9697L22.7384 34.97ZM35.7615 20.9859L26.3071 30.6062L22.0765 24.8862C21.4671 24.0667 20.3129 23.8995 19.5013 24.5147C18.6896 25.1299 18.5241 26.2953 19.1334 27.1147L24.6517 34.5433C24.9713 34.9751 25.461 35.2467 25.9944 35.2862H26.1232C26.6152 35.2839 27.0843 35.0842 27.4292 34.729L38.4657 23.5862C39.1808 22.8572 39.1785 21.6803 38.4565 20.9583C37.7346 20.2363 36.5688 20.2387 35.8537 20.9676L35.7615 20.9859Z" fill="black"/>
</svg>
